# xmcd
#
# Track frame offsets:
#	150
#	22410
#	35769
#	51186
#	67954
#	89052
#	107902
#	129861
#	144401
#	168546
#	182068
#	201104
#	220119
#
# Disc length: 3113 seconds
#
# Revision: 1
# Processed by: cddbd v1.5.2PL0 Copyright (c) Steve Scherf et al.
# Submitted via: audiograbber 1.83.01
#
DISCID=c40c270d
DTITLE=Kendra Morris - Mockingbird
DYEAR=2013
DGENRE=Other
TTITLE0=Space Oddity
TTITLE1=As Long As I've Got You
TTITLE2=Miss You
TTITLE3=Walk On By
TTITLE4=Shine On You Crazy Diamond
TTITLE5=Wicked Game
TTITLE6=I'm Gonna Be (500 Miles)
TTITLE7=Karma Police
TTITLE8=Ride The Lightning
TTITLE9=Cry Me a River
TTITLE10=Walk On The Wild Side
TTITLE11=Black Hole Sun
TTITLE12=Don't Talk (Put Your Head On My Shoulder)
EXTD=
EXTT0=
EXTT1=
EXTT2=
EXTT3=
EXTT4=
EXTT5=
EXTT6=
EXTT7=
EXTT8=
EXTT9=
EXTT10=
EXTT11=
EXTT12=
PLAYORDER=
